# xmcd CD database file
#
# Track frame offsets:
#	150
#	21102
#	38535
#
# Disc length: 735 seconds
#
# Revision: 1
# Processed by: cddbd v1.4PL0 Copyright (c) Steve Scherf et al.
# Submitted via: CDex 1.40Beta9
#
DISCID=1602dd03
DTITLE=Bachelor Girl - Drowning Not Waving [CD Single)
DYEAR=2002
DGENRE=Pop
TTITLE0=Drowning Not Waving
TTITLE1=Drowning Not Waving (Jack Remix)
TTITLE2=Guilt Trip
EXTD=YEAR: 2002 ID3G: 13
EXTT0=
EXTT1=
EXTT2=
PLAYORDER=
